<?xml version="1.0" encoding="UTF-8"?>
<svg id="Layer_1" xmlns="http://www.w3.org/2000/svg" version="1.1" viewBox="0 0 841.89 595.28">
  <!-- Generator: Adobe Illustrator 29.5.1, SVG Export Plug-In . SVG Version: 2.1.0 Build 141)  -->
  <defs>
    <style>
      .st0 {
        fill: #fff;
      }
    </style>
  </defs>
  <path class="st0" d="M298.42,383.18l-89.22,5.7c-43.67-6.44-92.37,2.82-134.46-16.82-21.19-9.89-32.24-26.31-17.24-52.08,8.22-14.12,18.84-13.45,31.98-12.95,86.95,3.33,156.75,30.16,243.57-7.74,18.61-8.12,157.22-8.07,175.73,0,53.81,23.47,116.63,22.25,174.44,17.36,20.3-1.72,88.2-19.13,100.04-.88,3.07,4.73,7.91,24.21,7.29,30.29-3.1,30.45-68.16,38.73-88.68,40.26-52.52,3.92-108.47,0-161.1-3.14v153.6c0,1.13-4.98,18.7-6.01,21.36-7.68,19.9-25.09,32.27-43.16,34.19-30.86,3.27-120,4.87-148.61-.88-15.73-3.16-44.58-29.19-44.58-48.33v-159.93Z"/>
  <path class="st0" d="M570.07,402.18c70.48,5.67,146.32,6.43,214.18-18.74,21.14,55.19,42.34,111.47,57.64,169.12-2.95,29.77-32.32,48.38-52.19,27.07-5.91-6.34-16.22-41.31-18.55-41.21-8.48,14.62-18.64,31.54-34.79,34.57-21.63,4.06-105.12,3.54-127.43-.08-15.15-2.45-29.99-17.38-34.91-34.49-.63-2.2-3.94-19.59-3.94-20.65v-115.59Z"/>
  <path class="st0" d="M271.79,402.18v115.59c0,1.16-4.31,19.74-5.18,22.34-6.49,19.37-21.54,30.79-38.75,33.09-23.54,3.15-99.97,3.95-122.35-.21-15.64-2.91-27-19.89-34.79-34.57-2.35-.08-12.63,34.86-18.55,41.21-20.21,21.67-53.02,1.07-52.14-30.09,17-56.11,36.21-111.97,57.59-166.11,67.86,25.18,143.7,24.41,214.18,18.74Z"/>
  <path class="st0" d="M513.75,203.18c3.28,6.8-15.32,40.1-19.81,46.73-32.44,47.93-41.3,11.9-79.82,15.96-16.53,1.74-24.04,15.6-43.95,8.23-15.3-5.67-40.48-57.78-45.21-76.06-10.3-39.79-11.16-89.79,18.67-117.36,32.59-30.13,46.02-5.15,75.93-4.46,27.67.64,45.66-24.73,75.77,1.57,21.68,18.94,1.66,19.96-6.65,39.19-10,23.14-7.31,48.96,6.14,69.09,4.77,7.14,18.34,15.9,18.93,17.12Z"/>
  <path class="st0" d="M670.38,115.22c88.11-1.5,94.53,154.13,10.19,163.41-99.38,10.93-101.21-161.85-10.19-163.41Z"/>
  <path class="st0" d="M153.91,117.92c110.08-22.21,112.15,175.55,4.98,160.4-75.6-10.68-75.33-146.21-4.98-160.4Z"/>
  <path class="st0" d="M460.86,0c1.09,22.65-12.62,55.53-31.86,61.84-17.65,5.79-17.03-4.18-12.05-20.68,6.27-20.75,25.67-37.8,43.9-41.16Z"/>
</svg>