<?xml version="1.0" encoding="UTF-8"?>
<svg id="Layer_1" xmlns="http://www.w3.org/2000/svg" version="1.1" viewBox="0 0 960 960">
  <!-- Generator: Adobe Illustrator 29.5.1, SVG Export Plug-In . SVG Version: 2.1.0 Build 141)  -->
  <defs>
    <style>
      .st0 {
        fill: #fff;
      }
    </style>
  </defs>
  <path class="st0" d="M866.03,651.92c-22.81,17.07-47.38,28.21-75.89,34.76-35.27,8.09-68.27,6.68-103.82,1.39-25.02,35.79-67.23,71.6-115.99,64.53-21.4-3.1-42.24-17.11-62.27-20.06-46.68-6.88-64.05,20.99-104.8,24.67-51.5,4.65-88.64-34.53-117.31-69.41-38.53.42-77.05,5.15-115.25-1.1-52.08-8.52-92.15-32.62-123.74-72.21-59.25-74.23-42.42-187.81,51.82-226.66,2.69-17.47,6.44-35.01,12.85-51.63,29.02-75.35,116.64-127.14,201.15-106.3,8.72,2.15,16.7,6.62,25.63,8,3.83-.85,15.05-20.51,19.19-25.15,17.68-19.82,61.64-45.59,87.46-54.37,115.66-39.35,255.53,15.8,297.49,126.85,14.08-1.73,28.69.19,42.57,2.82,178.48,33.62,216.52,262.45,80.88,363.89h.02ZM500.11,398.48c-1.87,10.56,1.39,25.45,0,36.55,15.87-6.95,29.49-17.78,45.11-25.14,35.94-16.93,63.39-14.66,100.56-1.75,51.59,17.93,85.04,67.47,88.91,118.64,3.43,45.35-9.18,90.17-29.88,130.49,15.02-.43,29.9,3.57,44.93,3.04,134.08-4.67,203.73-152.66,142.09-258.57-36.13-62.08-103.14-92.58-177.46-86.22-17.15-75.55-82.45-123.54-160.7-136.37-91.82-15.07-179.96,40.77-211.78,121.63-3.07,7.79-7.76,30.04-11.73,34.73-2.8,3.3-14.5,5.46-18.36,2.67-7.98-5.8-.99-36.25,1.37-45.21,1.17-4.42,10.06-26.67,8.93-27.91-12-2.94-23.29-8.68-35.77-10.11-54.4-6.24-113.19,32.43-135.53,78.11-11.19,22.88-13.56,45.69-13.54,70.71-53.96,14.63-90.17,63.37-89.04,116.29l-12.6-.75,12.38,6.1c1.34,54.51,35.19,94.48,84.91,118.02,43.09,20.41,86.56,10.9,132.58,15.33-15.34-37.25-33.13-79.22-29.96-120.13,6.46-83.52,78.77-151.29,170.09-128.23,11.27,2.85,79.56,31.21,83.45,27.6-1.61-28.8-3.5-55.89,7.12-83.51,14.75-38.37,48.67-57.25,90.5-61.17-6.14,34.71-21.07,69.32-54,88.29-8.11,4.67-23.9,8.74-29.87,13.07-1.01.73-2.53,2.77-2.72,3.79h.02ZM669.6,459.41c-13.52-13.69-38.54-28.45-58.51-30.34-36.1-3.43-59.1,13.57-91.27,22.39-72.11,19.77-119.33-47.33-195.91.85-53.97,33.97-61.66,94.71-45.69,150.41,10.14,35.38,50.67,95.05,83.46,114.85,50.15,30.28,81.87-16.83,131.42-17.09,46.13-.24,85.51,42.23,129.03,10.5,64.46-47,108.95-189.3,47.47-251.58h0Z"/>
</svg>