<?xml version="1.0" encoding="UTF-8"?>
<svg id="Layer_1" xmlns="http://www.w3.org/2000/svg" version="1.1" viewBox="0 0 960 960">
  <!-- Generator: Adobe Illustrator 29.5.1, SVG Export Plug-In . SVG Version: 2.1.0 Build 141)  -->
  <defs>
    <style>
      .st0 {
        fill: #fff;
      }
    </style>
  </defs>
  <path class="st0" d="M725.18,585.9c-14.49,11.44-30.09,18.91-48.2,23.3-22.4,5.42-43.36,4.48-65.94.93-15.89,23.99-42.7,48-73.67,43.26-13.59-2.08-26.83-11.47-39.55-13.45-29.65-4.61-40.68,14.07-66.56,16.54-32.71,3.12-56.3-23.15-74.51-46.53-24.47.28-48.94,3.45-73.2-.74-33.08-5.71-58.53-21.87-78.59-48.41-37.63-49.76-26.94-125.9,32.91-151.95,1.71-11.71,4.09-23.47,8.16-34.61,18.43-50.51,74.08-85.23,127.76-71.26,5.54,1.44,10.61,4.44,16.28,5.36,2.43-.57,9.56-13.75,12.19-16.86,11.23-13.29,39.15-30.56,55.55-36.45,73.46-26.38,162.3,10.59,188.95,85.04,8.94-1.16,18.22.13,27.04,1.89,113.36,22.54,137.52,175.94,51.37,243.94ZM492.77,416c-1.19,7.08.88,17.06,0,24.5,10.08-4.66,18.73-11.92,28.65-16.85,22.83-11.35,40.26-9.83,63.87-1.17,32.77,12.02,54.01,45.23,56.47,79.53,2.18,30.4-5.83,60.45-18.98,87.48,9.54-.29,18.99,2.39,28.54,2.04,85.16-3.13,129.4-102.34,90.25-173.34-22.95-41.62-65.51-62.06-112.71-57.8-10.89-50.65-52.37-82.82-102.07-91.42-58.32-10.1-114.3,27.33-134.51,81.54-1.95,5.22-4.93,20.14-7.45,23.28-1.78,2.21-9.21,3.66-11.66,1.79-5.07-3.89-.63-24.3.87-30.31.74-2.96,6.39-17.88,5.67-18.71-7.62-1.97-14.79-5.82-22.72-6.78-34.55-4.18-71.89,21.74-86.08,52.36-7.11,15.34-8.61,30.63-8.6,47.4-34.27,9.81-57.27,42.48-56.55,77.96l-8-.5,7.86,4.09c.85,36.54,22.35,63.34,53.93,79.12,27.37,13.68,54.98,7.31,84.21,10.28-9.74-24.97-21.04-53.11-19.03-80.53,4.1-55.99,50.03-101.42,108.03-85.96,7.16,1.91,50.53,20.92,53,18.5-1.02-19.31-2.22-37.47,4.52-55.98,9.37-25.72,30.91-38.38,57.48-41.01-3.9,23.27-13.38,46.47-34.3,59.19-5.15,3.13-15.18,5.86-18.97,8.76-.64.49-1.61,1.86-1.73,2.54ZM600.42,456.85c-8.59-9.18-24.48-19.07-37.16-20.34-22.93-2.3-37.54,9.1-57.97,15.01-45.8,13.25-75.79-31.73-124.43.57-34.28,22.77-39.16,63.49-29.02,100.83,6.44,23.72,32.18,63.72,53.01,76.99,31.85,20.3,52-11.28,83.47-11.46,29.3-.16,54.31,28.31,81.95,7.04,40.94-31.51,69.2-126.9,30.15-168.65Z"/>
</svg>