<?xml version="1.0" encoding="UTF-8"?>
<svg id="Layer_1" xmlns="http://www.w3.org/2000/svg" version="1.1" viewBox="0 0 460 262">
  <!-- Generator: Adobe Illustrator 29.5.1, SVG Export Plug-In . SVG Version: 2.1.0 Build 141)  -->
  <defs>
    <style>
      .st0 {
        fill: #fff;
      }
    </style>
  </defs>
  <path class="st0" d="M192,141.5v26.5l-5.67-.08c-1.05-.36-1.77-3.66-4.69-4.31-13.1-2.92-11.75,16.74-.37,13.42,3.63-1.06,4.15-4.14,5.05-4.44,2.52-.83,6.48,1.04,8.93-1.07.29-.25,1.24-1.57,1.24-1.76v-27.5l.75-.75h14.75v30.25c0,.27-3.2,2.24-3.93,3.57-3.59,6.47,4.27,15.02,10.94,8.94,3.59-3.27,3.04-7.11,0-10.53-.44-.5-2.52-1.54-2.52-1.98v-30.25h15.5v30.25c0,.25-3,2.16-3.73,3.27-3.29,5.04,1.34,12.51,7.12,11.14,6.31-1.49,8.12-8.79,3.08-12.9-.67-.55-1.98-.66-1.98-.77v-31h14.75l.75.75v27.5c0,.82,1.92,2.43,2.86,2.64,1.82.41,6.6-.34,7.54.21.8.47,1.33,3.59,4.69,4.56,9.68,2.79,12.98-12.28,3.62-13.62-4.42-.63-6.38.77-8.54,4.38l-5.67.08v-26.5c6.05.25,12.23-.33,18.27-.02,22.47,1.16,41.94,3.96,64.92,1.46,10.11-1.1,29.89-6.69,38.76-2.63,11.78,5.39,10.1,18.73-1.6,23.78-17.31,7.48-62.59,7.58-82.11,6.43-5.75-.34-11.39-2.17-17.23-1.52v60.25c0,1.96-6.49,8.81-8.26,10.24-7.73,6.26-14.64,5.52-23.98,6.02-12.47.67-25.48,1-38.03.52-11.44-.44-26.35-1.69-32.49-13.01-.82-1.51-3.74-9.49-3.74-10.76v-53.25c-1.73.08-3.51-.13-5.24,0-23.06,1.85-46.86,2.65-70,0-10.94-1.26-37.71-4.57-30.12-21.61,6.66-14.97,32.54-5.84,45.18-4.45,23.38,2.57,43.53-.11,66.44-1.43,4.88-.28,9.86.2,14.75,0h0Z"/>
  <path class="st0" d="M214.42,68.42c.41-.26,2.93-7.35,3.82-8.92,15.67-27.71,61.6-10.9,52.62,23.12-.46,1.76-2.63,4.76-1.62,6.4,2.31,1.48,5.12,1.82,7.6,2.9,21.88,9.53,15.95,42.3-8.57,44.11-28.41,2.09-59.36-1.62-88.04,0-19-.68-29.22-23.83-16.74-38.28,4.8-5.56,9.63-6.46,16.27-8.73.21-6.13.85-11.27,4.99-16.01,5.15-5.91,13.7-8.59,21.27-6.76,1.92.46,6.85,3.15,8.4,2.18h0Z"/>
  <path class="st0" d="M161,174.5v47.75c0,.98-4.71,8.1-5.74,9.26-5.54,6.19-14.6,7.09-22.51,7.49-10.66.54-34.72,1.27-44.35-1.14-6.75-1.69-10.81-7.15-15.39-11.85-2.28,6.39-4.65,14.75-12.18,16.57-14.36,3.47-21.87-9.11-16.56-21.56l22.75-54.01c6.03,1.97,12.21,3.65,18.48,4.77,24.96,4.46,50.29,2.47,75.51,2.74v-.02Z"/>
  <path class="st0" d="M290,174.5c31.44-.06,63.68,2.47,93.99-7.5l23.58,56.68c4.86,25.81-27.36,25.17-29.58,2.33-3.75,3.32-6.34,7.4-10.84,9.9-8.73,4.85-32.93,3.03-43.41,2.61-11.6-.47-21.28,1.36-29.5-8.5-.95-1.14-4.24-6.09-4.24-7.26v-48.25h0Z"/>
  <path class="st0" d="M330.4,69.65c42.97-4.4,45.65,58.19,6.85,61.35-40.3,3.28-45.14-57.42-6.85-61.35Z"/>
  <path class="st0" d="M111.39,69.64c39.68-4.48,49.2,50.08,13.49,59.99-42.98,11.93-53.28-55.5-13.49-59.99Z"/>
  <path class="st0" d="M232.85,176.6c4.81-1.45,5.3,4.22,2.16,5.2s-4.91-4.37-2.16-5.2Z"/>
  <path class="st0" d="M215.89,176.61c2.32,1.32.78,6.68-2.76,5.03-3.55-1.66-.76-7.02,2.76-5.03Z"/>
  <path class="st0" d="M178.87,167.57c3.56-.7,4.33,4.94.85,5.44s-4.72-4.68-.85-5.44Z"/>
  <path class="st0" d="M268.86,167.58c3.58-.55,4.34,4.93.86,5.44s-4.6-4.86-.86-5.44Z"/>
</svg>