<?xml version="1.0" encoding="UTF-8"?>
<svg id="Layer_1" xmlns="http://www.w3.org/2000/svg" version="1.1" viewBox="0 0 460 262">
  <!-- Generator: Adobe Illustrator 29.5.1, SVG Export Plug-In . SVG Version: 2.1.0 Build 141)  -->
  <defs>
    <style>
      .st0 {
        fill: #fff;
      }
    </style>
  </defs>
  <path d="M218.25,53.61c-1.56.96-6.48-1.72-8.4-2.18-7.57-1.83-16.12.85-21.27,6.76-4.14,4.75-4.78,9.89-4.99,16.01-6.64,2.27-11.47,3.17-16.27,8.73-12.47,14.45-2.26,37.6,16.74,38.28,28.68-1.62,59.62,2.09,88.04,0,24.52-1.81,30.45-34.58,8.57-44.11-2.48-1.08-5.29-1.42-7.6-2.9-1.01-1.65,1.16-4.65,1.62-6.4,8.98-34.02-36.94-50.82-52.62-23.12-.89,1.57-3.41,8.67-3.82,8.92Z"/>
  <path d="M115.22,54.83c-39.79,4.49-29.49,71.92,13.49,59.99,35.71-9.91,26.19-64.47-13.49-59.99Z"/>
  <path d="M334.23,54.84c-38.3,3.92-33.46,64.63,6.85,61.35,38.8-3.16,36.12-65.75-6.85-61.35Z"/>
  <path d="M249.09,230.7c9.34-.5,16.25.24,23.98-6.02,1.77-1.43,8.26-8.28,8.26-10.24v-60.25c5.83-.65,11.48,1.18,17.23,1.52,19.52,1.15,64.8,1.05,82.11-6.43,11.7-5.05,13.39-18.39,1.6-23.78-8.87-4.06-28.65,1.53-38.76,2.63-22.97,2.5-42.44-.3-64.92-1.46-6.04-.31-12.22.27-18.27.02v26.5l5.67-.08c2.16-3.6,4.12-5,8.54-4.38,9.36,1.33,6.05,16.41-3.62,13.62-3.36-.97-3.88-4.09-4.69-4.56-.94-.55-5.73.2-7.54-.21-.94-.21-2.86-1.82-2.86-2.64v-27.5l-.75-.75h-14.75v31c0,.11,1.3.21,1.98.77,5.04,4.12,3.23,11.41-3.08,12.9-5.79,1.36-10.41-6.1-7.12-11.14.72-1.11,3.73-3.03,3.73-3.27v-30.25h-15.5v30.25c0,.44,2.07,1.48,2.52,1.98,3.03,3.42,3.58,7.25-.01,10.53-6.67,6.08-14.53-2.47-10.94-8.94.73-1.32,3.93-3.3,3.93-3.57v-30.25h-14.75l-.75.75v27.5c0,.19-.95,1.51-1.24,1.76-2.45,2.11-6.42.24-8.93,1.07-.91.3-1.42,3.38-5.05,4.44-11.38,3.32-12.73-16.34.37-13.42,2.92.65,3.64,3.95,4.69,4.31l5.67.08v-26.5c-4.89.2-9.86-.28-14.75,0-22.92,1.32-43.07,4-66.44,1.43-12.64-1.39-38.52-10.53-45.18,4.45-7.58,17.04,19.18,20.35,30.12,21.61,23.15,2.67,46.94,1.86,70,.01,1.73-.14,3.51.08,5.24,0v53.25c0,1.27,2.92,9.25,3.74,10.76,6.13,11.32,21.04,12.57,32.49,13.01"/>
  <path d="M64.66,227.77c7.53-1.82,9.9-10.18,12.18-16.57,4.58,4.7,8.64,10.16,15.39,11.85,9.63,2.41,33.69,1.68,44.35,1.14,7.91-.4,16.97-1.3,22.51-7.49,1.03-1.15,5.74-8.28,5.74-9.26v-47.75c-25.22-.27-50.55,1.72-75.51-2.74-6.26-1.12-12.45-2.8-18.48-4.77l-22.75,54.01"/>
  <path d="M381.83,211.2c2.22,22.84,34.44,23.48,29.58-2.33l-23.58-56.68c-30.31,9.97-62.56,7.44-93.99,7.5v48.25c0,1.16,3.29,6.12,4.24,7.26,8.22,9.86,17.9,8.03,29.5,8.5"/>
  <path d="M182.71,152.77c-3.87.76-2.61,5.94.85,5.44s2.71-6.14-.85-5.44Z"/>
  <path d="M272.7,152.78c-3.74.57-2.72,5.95.86,5.44s2.72-5.99-.86-5.44Z"/>
  <path d="M219.73,161.81c-3.52-2-6.32,3.36-2.76,5.03,3.54,1.66,5.09-3.71,2.76-5.03Z"/>
  <path d="M236.68,161.8c-2.75.83-1.09,6.21,2.16,5.2,3.13-.98,2.64-6.65-2.16-5.2Z"/>
  <path class="st0" d="M211.06,231.22c-11.44-.44-26.35-1.69-32.49-13.01-.82-1.51-3.74-9.49-3.74-10.76v-53.25c-1.73.08-3.51-.13-5.24,0-23.06,1.85-46.86,2.65-70-.01-10.94-1.26-37.71-4.57-30.12-21.61,6.66-14.97,32.54-5.84,45.18-4.45,23.38,2.57,43.53-.11,66.44-1.43,4.88-.28,9.86.2,14.75,0v26.5l-5.67-.08c-1.05-.36-1.77-3.66-4.69-4.31-13.1-2.92-11.75,16.74-.37,13.42,3.63-1.06,4.15-4.14,5.05-4.44,2.52-.83,6.48,1.04,8.93-1.07.29-.25,1.24-1.57,1.24-1.76v-27.5l.75-.75h14.75v30.25c0,.27-3.2,2.24-3.93,3.57-3.59,6.47,4.27,15.02,10.94,8.94,3.59-3.27,3.04-7.11.01-10.53-.44-.5-2.52-1.54-2.52-1.98v-30.25h15.5v30.25c0,.25-3,2.16-3.73,3.27-3.29,5.04,1.34,12.51,7.12,11.14,6.31-1.49,8.12-8.79,3.08-12.9-.67-.55-1.98-.66-1.98-.77v-31h14.75l.75.75v27.5c0,.82,1.92,2.43,2.86,2.64,1.82.41,6.6-.34,7.54.21.8.47,1.33,3.59,4.69,4.56,9.68,2.79,12.98-12.28,3.62-13.62-4.42-.63-6.38.77-8.54,4.38l-5.67.08v-26.5c6.05.25,12.23-.33,18.27-.02,22.47,1.16,41.94,3.96,64.92,1.46,10.11-1.1,29.89-6.69,38.76-2.63,11.78,5.39,10.1,18.73-1.6,23.78-17.31,7.48-62.59,7.58-82.11,6.43-5.75-.34-11.39-2.17-17.23-1.52v60.25c0,1.96-6.49,8.81-8.26,10.24-7.73,6.26-14.64,5.52-23.98,6.02"/>
  <path class="st0" d="M218.25,53.61c.41-.26,2.93-7.35,3.82-8.92,15.67-27.71,61.6-10.9,52.62,23.12-.46,1.76-2.63,4.76-1.62,6.4,2.31,1.48,5.12,1.82,7.6,2.9,21.88,9.53,15.95,42.3-8.57,44.11-28.41,2.09-59.36-1.62-88.04,0-19-.68-29.22-23.83-16.74-38.28,4.8-5.56,9.63-6.46,16.27-8.73.21-6.13.85-11.27,4.99-16.01,5.15-5.91,13.7-8.59,21.27-6.76,1.92.46,6.85,3.15,8.4,2.18Z"/>
  <path class="st0" d="M48.09,206.2l22.75-54.01c6.03,1.97,12.21,3.65,18.48,4.77,24.96,4.46,50.29,2.47,75.51,2.74v47.75c0,.98-4.71,8.1-5.74,9.26-5.54,6.19-14.6,7.09-22.51,7.49-10.66.54-34.72,1.27-44.35-1.14-6.75-1.69-10.81-7.15-15.39-11.85-2.28,6.39-4.65,14.75-12.18,16.57"/>
  <path class="st0" d="M327.58,223.7c-11.6-.47-21.28,1.36-29.5-8.5-.95-1.14-4.24-6.09-4.24-7.26v-48.25c31.44-.06,63.68,2.47,93.99-7.5l23.58,56.68c4.86,25.81-27.36,25.17-29.58,2.33"/>
  <path class="st0" d="M334.23,54.84c42.97-4.4,45.65,58.19,6.85,61.35-40.3,3.28-45.14-57.42-6.85-61.35Z"/>
  <path class="st0" d="M115.22,54.83c39.68-4.48,49.2,50.08,13.49,59.99-42.98,11.93-53.28-55.5-13.49-59.99Z"/>
  <path class="st0" d="M236.68,161.8c4.81-1.45,5.3,4.22,2.16,5.2-3.25,1.02-4.91-4.37-2.16-5.2Z"/>
  <path class="st0" d="M219.73,161.81c2.32,1.32.78,6.68-2.76,5.03-3.55-1.66-.76-7.02,2.76-5.03Z"/>
  <path class="st0" d="M182.71,152.77c3.56-.7,4.33,4.94.85,5.44s-4.72-4.68-.85-5.44Z"/>
  <path class="st0" d="M272.7,152.78c3.58-.55,4.34,4.93.86,5.44s-4.6-4.86-.86-5.44Z"/>
</svg>